<?xml version="1.0" standalone="no"?>
<!DOCTYPE svg PUBLIC "-//W3C//DTD SVG 20010904//EN"
 "http://www.w3.org/TR/2001/REC-SVG-20010904/DTD/svg10.dtd">
<svg version="1.0" xmlns="http://www.w3.org/2000/svg"
 width="731.000000pt" height="731.000000pt" viewBox="0 0 731.000000 731.000000"
 preserveAspectRatio="xMidYMid meet">
<metadata>
Created by potrace 1.11, written by Peter Selinger 2001-2013
</metadata>
<g transform="translate(0.000000,731.000000) scale(0.100000,-0.100000)"
fill="#000000" stroke="none">
<path d="M4361 6545 c-34 -15 -207 -185 -382 -376 -53 -57 -117 -126 -142
-154 -26 -27 -47 -56 -47 -62 0 -24 -48 -13 -92 20 -24 18 -77 82 -120 142
-42 61 -103 138 -136 173 -33 34 -55 62 -49 62 25 0 118 -62 164 -108 26 -27
71 -88 98 -136 65 -114 78 -131 57 -76 -41 106 -170 322 -233 391 -64 69 -138
76 -183 16 -35 -47 -53 -86 -92 -200 -20 -56 -44 -117 -53 -135 l-17 -33 -29
26 c-135 119 -205 165 -255 165 -54 0 -39 -19 80 -99 87 -59 168 -135 176
-165 3 -12 -8 -49 -24 -85 l-29 -63 -13 31 c-29 71 -70 122 -113 140 -38 16
-100 71 -139 123 -7 9 -26 24 -42 32 -26 13 -32 13 -56 -1 -15 -8 -41 -42 -59
-74 -34 -61 -97 -136 -107 -126 -7 7 19 58 66 127 57 86 69 112 30 70 -17 -19
-48 -55 -68 -79 -21 -25 -44 -52 -52 -61 -8 -8 -30 -35 -49 -59 l-34 -43 -56
6 c-31 3 -61 3 -67 -2 -16 -10 -30 -78 -33 -152 -2 -65 5 -120 33 -280 8 -47
18 -114 21 -150 l6 -65 -37 55 c-122 181 -327 389 -483 492 -79 52 -107 57
-152 31 -49 -29 -64 -74 -64 -198 0 -60 3 -130 7 -155 32 -213 135 -559 214
-721 24 -49 44 -91 44 -93 0 -2 41 -88 90 -190 50 -103 90 -192 90 -197 0 -12
-17 -8 -135 38 -215 83 -265 89 -265 34 0 -15 13 -54 29 -87 202 -410 219
-441 331 -581 29 -37 97 -107 149 -156 102 -93 382 -303 488 -364 34 -20 61
-38 59 -40 -1 -1 -40 8 -87 21 -74 21 -121 34 -154 42 -332 79 -455 117 -505
155 -62 46 -330 143 -629 225 -228 63 -289 76 -402 88 -55 6 -196 47 -228 67
-11 6 0 7 34 4 28 -3 73 -8 100 -10 28 -3 61 -7 75 -10 14 -3 39 -7 55 -9 72
-12 107 -19 215 -43 63 -14 162 -38 220 -55 58 -16 119 -33 135 -38 17 -4 73
-21 125 -39 52 -17 97 -31 100 -31 3 0 -6 9 -20 20 -74 59 -288 143 -485 190
-94 22 -247 52 -330 65 -320 48 -632 52 -784 9 -217 -60 -124 -205 269 -417
284 -153 849 -346 1175 -401 17 -3 71 -12 120 -20 50 -9 108 -18 130 -20 131
-16 144 -18 320 -33 50 -4 241 -8 425 -8 295 0 397 4 515 20 16 2 53 7 80 11
28 3 86 8 130 10 44 2 83 3 87 3 4 1 3 13 -2 27 -16 40 -5 46 68 37 37 -4 145
-8 240 -8 94 0 169 -1 165 -2 -5 -2 -50 -9 -102 -17 -89 -15 -121 -27 -121
-48 0 -5 3 -7 8 -5 6 4 59 10 198 22 43 4 229 37 304 54 25 5 56 12 70 14 14
3 101 23 193 46 92 23 173 41 179 41 9 0 169 137 188 161 3 4 37 26 75 49 39
23 112 71 162 106 51 35 101 64 110 64 32 0 120 58 181 119 75 75 225 272 278
366 6 11 49 85 96 165 224 387 454 925 528 1238 11 46 23 130 26 186 5 90 4
109 -14 148 -37 85 -108 106 -177 54 -47 -36 -245 -302 -245 -328 0 -13 21 10
58 63 58 86 170 169 226 169 85 0 78 -217 -18 -537 -49 -163 -161 -416 -252
-570 -24 -41 -44 -77 -44 -80 0 -6 -46 -78 -178 -277 l-106 -159 -11 49 c-6
27 -24 75 -39 107 -24 47 -33 57 -55 58 -172 5 -233 79 -181 221 12 34 43 100
68 147 116 219 140 280 116 288 -7 2 -32 -20 -57 -49 -25 -29 -58 -66 -72 -83
-25 -30 89 145 171 262 51 71 69 112 56 125 -8 8 -194 -282 -297 -460 -54 -93
-160 -239 -203 -280 l-24 -23 7 73 c17 169 -3 411 -43 513 -17 42 -84 125
-102 125 -4 0 -29 -9 -55 -21 -56 -25 -116 -77 -147 -127 -12 -21 -34 -50 -48
-65 -14 -16 -37 -47 -52 -70 -15 -23 -35 -53 -45 -67 -10 -14 -18 -27 -18 -30
0 -12 -81 -170 -87 -170 -3 0 -16 21 -28 48 -24 50 -69 96 -137 140 -24 15
-43 34 -43 42 0 8 18 43 40 78 25 40 33 59 22 53 -25 -13 -57 -51 -73 -86 -10
-22 -33 -39 -87 -65 -91 -44 -160 -103 -190 -163 -20 -39 -66 -87 -86 -87 -3
0 -18 12 -33 26 -56 52 -150 81 -260 79 -83 -1 -68 12 67 59 58 21 113 44 122
53 19 17 20 17 20 -39 1 -16 4 -28 8 -28 12 0 28 49 40 124 11 68 7 85 -22 86
-8 0 -23 -46 -27 -81 0 -6 -17 20 -36 57 -22 45 -35 83 -35 110 0 84 -37 128
-84 102 -16 -9 -26 1 -178 164 -24 26 -35 47 -33 61 2 12 6 34 9 50 3 15 1 25
-3 22 -5 -2 -12 -21 -16 -41 l-6 -36 -30 28 c-55 52 -86 142 -80 233 l1 24 23
-21 c40 -38 51 -26 23 24 -29 52 -27 61 26 110 74 70 205 87 310 40 61 -27
139 -97 179 -161 22 -34 79 -163 79 -178 0 -2 -11 -3 -25 -2 -14 2 -25 1 -25
-1 0 -2 30 -81 66 -174 l67 -170 30 17 c20 12 48 50 85 118 61 112 124 195
233 304 79 80 183 161 205 161 21 0 37 -76 49 -234 11 -136 25 -131 20 7 -3
81 -12 157 -25 209 -11 44 -20 82 -20 84 0 2 -7 4 -15 4 -19 0 -19 -6 10 77
26 77 97 214 157 307 23 36 38 71 38 90 0 17 3 47 6 66 5 32 2 40 -40 80 -25
24 -48 57 -51 72 -4 15 -13 28 -22 28 -8 0 -40 24 -71 54 -65 62 -93 72 -141
51z m49 -64 c-75 -23 -107 -50 -203 -176 -34 -44 -72 -91 -84 -105 -13 -14
-23 -28 -23 -32 0 -5 -4 -8 -9 -8 -14 0 125 207 173 259 47 50 86 70 136 70
32 -1 33 -1 10 -8z m250 -292 c11 -19 4 -37 -21 -59 -3 -3 -23 -33 -44 -67
-21 -35 -39 -63 -40 -63 -4 0 42 128 62 173 18 42 28 46 43 16z m-2792 -508
c67 -34 134 -85 212 -162 61 -60 140 -151 167 -189 16 -24 15 -24 -22 4 -119
90 -190 125 -309 150 -34 7 -79 24 -101 39 -51 33 -99 44 -121 26 -14 -12 -15
-9 -10 26 4 22 14 65 22 96 l16 56 43 -8 c24 -5 70 -22 103 -38z m2376 -133
c-21 -24 -45 -50 -53 -58 -40 -38 -124 -138 -158 -189 -39 -57 -26 -20 21 60
47 80 121 163 183 203 21 14 40 25 42 25 2 1 -14 -18 -35 -41z m-2549 -181
c10 -46 90 -245 141 -347 133 -271 369 -645 496 -784 32 -34 30 -42 -13 -48
-26 -4 -43 3 -93 41 -68 52 -103 96 -161 202 -37 69 -70 127 -124 222 -77 136
-162 321 -200 435 -42 125 -49 160 -66 299 -3 34 12 18 20 -20z m2237 -177 c6
0 5 -6 -3 -16 -12 -15 -15 -14 -26 12 -17 41 -15 65 3 32 8 -16 20 -28 26 -28z
m4 -562 c-56 -57 -120 -125 -144 -153 l-43 -50 35 58 c20 31 36 61 36 65 0 23
183 182 211 182 3 0 -40 -46 -95 -102z m264 67 c17 -9 57 -43 89 -76 l60 -60
-26 -67 c-43 -115 -63 -180 -69 -229 -10 -77 -60 -210 -91 -241 -30 -31 -61
-80 -78 -126 -21 -59 -85 -126 -119 -126 -42 0 -57 25 -51 83 8 69 25 135 97
372 88 291 109 373 111 441 2 68 2 68 77 29z m-851 -102 c-13 -15 -26 -30 -29
-33 -3 -3 -16 -18 -28 -34 -17 -23 -22 -25 -22 -11 0 10 21 38 46 62 53 49 70
57 33 16z m269 -13 c45 -20 101 -62 115 -86 8 -14 1 -26 -79 -141 -23 -32 -48
-78 -55 -101 -6 -23 -19 -48 -28 -57 -15 -13 -30 -2 -149 113 -84 81 -132 136
-132 148 0 43 106 132 175 146 37 8 109 -3 153 -22z m-1724 -422 c-3 -24 -1
-67 4 -97 10 -55 10 -55 -8 -30 -43 56 -49 169 -9 169 16 0 18 -5 13 -42z
m2346 -25 c-23 -41 -23 -38 0 20 8 21 16 34 18 28 2 -5 -6 -27 -18 -48z
m-1342 -997 c53 -18 131 -42 171 -52 41 -10 69 -20 63 -22 -25 -8 -209 45
-302 87 -66 30 -42 25 68 -13z m279 -82 c-3 -3 -12 -4 -19 -1 -8 3 -5 6 6 6
11 1 17 -2 13 -5z"/>
<path d="M4776 6332 c-41 -42 -90 -122 -75 -122 5 0 9 4 9 8 0 5 23 32 50 60
59 61 95 68 136 27 45 -45 94 -183 109 -310 4 -27 8 -62 11 -77 8 -54 7 -218
-3 -230 -5 -7 -14 -25 -21 -40 -20 -48 5 -32 92 57 46 47 86 85 90 85 24 0 53
-149 50 -265 -1 -93 -13 -245 -19 -254 -1 -3 -6 -28 -10 -56 -8 -61 -33 -151
-75 -270 -18 -49 -41 -119 -51 -155 -34 -116 -35 -185 -3 -132 101 164 203
476 230 707 3 28 8 53 10 57 10 16 5 245 -6 293 -6 28 -22 69 -36 93 -22 37
-29 42 -56 40 -32 -3 -68 -32 -131 -106 -16 -19 -30 -32 -32 -30 -2 1 -6 48
-9 103 -3 55 -8 109 -10 120 -2 11 -6 43 -10 70 -9 71 -46 212 -68 265 -45
106 -108 129 -172 62z"/>
<path d="M3484 5696 c-70 -30 -120 -108 -147 -228 -8 -38 -14 -68 -12 -68 1 0
25 46 54 103 89 180 151 210 240 118 39 -40 91 -81 103 -81 15 0 8 32 -14 72
-41 73 -152 114 -224 84z"/>
<path d="M3260 5522 c0 -21 33 -78 37 -64 3 7 -5 27 -16 45 -11 17 -21 26 -21
19z"/>
<path d="M4466 5202 c-7 -11 -15 -70 -21 -152 -3 -41 -7 -84 -9 -95 -3 -11 -5
-26 -5 -33 -1 -10 -8 -9 -30 3 -25 13 -111 27 -111 19 0 -2 21 -18 48 -36 26
-17 52 -37 58 -43 20 -20 41 -70 36 -89 -2 -10 0 -16 6 -12 5 3 9 39 9 79 0
105 11 178 39 259 29 87 30 108 5 108 -11 0 -22 -3 -25 -8z"/>
<path d="M3832 4992 c-17 -24 -19 -45 -20 -184 0 -87 2 -158 5 -158 20 0 93
233 93 298 0 36 -4 44 -29 57 -29 14 -30 14 -49 -13z"/>
<path d="M7049 4286 c-2 -2 -35 -6 -74 -10 -68 -6 -204 -22 -275 -31 -19 -3
-55 -7 -80 -10 -42 -5 -91 -11 -150 -20 -14 -3 -71 -11 -126 -19 -145 -22
-301 -57 -321 -71 -14 -10 -7 -11 38 -4 29 5 72 11 94 14 22 3 54 8 70 12 17
4 37 7 45 8 40 6 107 16 120 20 8 2 33 7 55 10 23 3 51 7 64 10 13 2 49 7 80
11 31 3 65 8 76 11 11 2 89 6 173 8 145 3 186 -5 105 -20 -70 -13 -277 -87
-363 -130 -89 -44 -232 -123 -480 -265 -375 -213 -590 -309 -817 -364 -56 -14
-115 -32 -132 -40 -37 -19 -95 -87 -121 -141 -22 -46 -27 -104 -7 -106 69 -7
147 -4 236 12 158 27 273 61 606 179 58 21 280 112 341 140 23 10 88 40 144
65 332 149 694 353 798 449 116 107 150 230 74 266 -24 12 -164 24 -173 16z"/>
<path d="M4786 2992 c-43 -4 -95 -31 -63 -33 9 -1 20 -2 25 -3 4 -2 38 -6 76
-11 43 -5 63 -11 55 -16 -20 -11 -157 -46 -213 -54 -43 -7 -46 -6 -46 15 0
106 -161 110 -529 14 -97 -25 -203 -52 -236 -61 -33 -8 -114 -28 -180 -45 -66
-16 -129 -32 -140 -34 -64 -13 -109 -32 -111 -48 -2 -15 4 -17 59 -11 101 10
154 18 452 65 183 29 211 33 205 27 -3 -3 -21 -8 -40 -11 -19 -3 -80 -12 -135
-21 -208 -33 -360 -70 -427 -106 -26 -14 -58 -47 -58 -61 0 -9 -66 -4 -117 9
-19 4 -23 1 -23 -20 0 -19 8 -28 38 -40 21 -8 53 -18 72 -21 19 -3 44 -7 55
-10 11 -2 52 -9 92 -16 39 -6 80 -13 90 -15 10 -2 26 -4 36 -4 11 -1 24 -16
34 -38 17 -42 145 -173 243 -250 103 -81 236 -156 405 -228 40 -17 236 -84
265 -91 8 -1 65 -14 125 -28 61 -14 130 -28 155 -31 25 -3 52 -8 60 -10 9 -3
36 -7 60 -10 25 -2 77 -8 115 -12 87 -9 415 -10 512 -1 318 31 581 125 709
254 74 75 104 144 105 238 0 40 -4 83 -10 94 -6 10 -8 21 -6 24 3 3 -19 25
-47 49 -68 57 -88 73 -118 99 -71 62 -510 256 -785 348 -146 49 -196 58 -405
77 -36 3 -81 8 -100 10 -19 2 -73 7 -120 10 -47 4 -87 8 -90 9 -3 1 -23 0 -44
-2z m532 -137 c384 -94 684 -245 854 -428 29 -32 53 -87 37 -87 -5 0 -9 3 -9
8 0 8 -5 10 -127 71 -100 49 -288 118 -440 160 -109 31 -127 36 -184 46 -61
11 -169 49 -231 82 -72 37 -145 109 -178 173 l-19 37 97 -19 c53 -10 143 -29
200 -43z m-1115 -52 c-7 -2 -19 -2 -25 0 -7 3 -2 5 12 5 14 0 19 -2 13 -5z"/>
<path d="M3067 2737 c-102 -30 -339 -152 -475 -243 -74 -50 -165 -148 -210
-226 -25 -44 -70 -165 -77 -211 -4 -18 -10 -50 -15 -72 -5 -22 -11 -58 -15
-80 -63 -414 -107 -605 -186 -792 -72 -172 -88 -227 -84 -284 5 -59 14 -65 77
-44 63 20 133 58 248 136 91 61 89 60 218 163 431 345 707 687 803 996 29 91
33 268 9 335 l-14 40 -7 -53 c-4 -29 -9 -54 -10 -55 -2 -1 -39 -26 -82 -55
-42 -29 -82 -50 -87 -47 -19 12 41 279 69 310 30 33 41 61 41 105 0 33 -6 48
-30 71 -35 35 -72 36 -173 6z"/>
</g>
</svg>
